<?xml version="1.0" standalone="no"?>
<!DOCTYPE svg PUBLIC "-//W3C//DTD SVG 20010904//EN"
 "http://www.w3.org/TR/2001/REC-SVG-20010904/DTD/svg10.dtd">
<svg version="1.0" xmlns="http://www.w3.org/2000/svg"
 width="260.000000pt" height="260.000000pt" viewBox="0 0 260.000000 260.000000"
 preserveAspectRatio="xMidYMid meet">
<metadata>
Created by potrace 1.14, written by Peter Selinger 2001-2017
</metadata>
<g transform="translate(0.000000,260.000000) scale(0.100000,-0.100000)"
fill="#000000" stroke="none">
<path d="M1270 2353 c-8 -4 -124 -64 -258 -135 -134 -70 -245 -128 -248 -128
-2 0 -4 13 -4 29 0 54 -78 121 -141 121 -35 0 -88 -30 -112 -64 -18 -26 -23
-48 -27 -135 l-5 -104 -143 -76 c-95 -50 -149 -85 -158 -101 -11 -20 -13 -118
-14 -503 0 -511 1 -521 49 -547 13 -7 375 -10 1091 -10 l1072 0 29 29 29 29 0
496 0 495 -22 25 c-24 25 -1059 572 -1100 580 -13 3 -30 2 -38 -1z m187 -183
c37 -22 31 -2 108 -345 31 -137 59 -252 61 -254 7 -7 10 0 73 179 39 111 69
181 82 193 31 25 91 22 116 -5 20 -22 21 -37 26 -543 6 -567 6 -560 -51 -584
-36 -15 -73 -6 -101 23 -20 21 -21 34 -23 321 l-3 300 -24 -95 c-13 -52 -28
-103 -33 -113 -14 -27 -57 -40 -89 -27 -31 13 -39 30 -71 150 l-23 85 -5 -301
c-5 -279 -6 -304 -24 -323 -29 -32 -95 -29 -127 5 l-24 26 4 636 c4 690 1 660
56 683 30 12 37 11 72 -11z m-777 -17 l30 -28 0 -628 c1 -420 -3 -634 -10
-647 -20 -37 -79 -52 -121 -30 -39 21 -49 62 -49 200 l0 130 -35 0 -35 0 0
-139 c0 -135 -1 -140 -26 -170 -34 -41 -92 -44 -129 -6 l-25 24 0 424 0 424
26 27 c35 34 83 35 121 2 l28 -24 3 -207 3 -206 37 3 37 3 3 412 2 411 31 26
c39 33 71 33 109 -1z m561 -2 l29 -29 0 -632 0 -631 -25 -24 c-24 -25 -25 -25
-224 -25 -110 0 -207 3 -216 6 -44 17 -45 34 -45 586 0 478 2 526 18 557 14
29 44 49 192 127 198 104 225 111 271 65z m946 -357 c135 -70 153 -86 153
-134 0 -66 -54 -92 -126 -61 -26 12 -48 21 -51 21 -2 0 -2 -57 -1 -127 l3
-128 63 -5 c70 -6 92 -22 92 -71 0 -49 -30 -72 -99 -77 l-61 -4 0 -124 0 -124
60 0 c70 0 104 -13 119 -47 17 -37 14 -52 -18 -84 -29 -29 -29 -29 -156 -29
-127 0 -127 0 -156 29 l-29 29 0 462 c0 296 4 468 10 480 11 20 56 49 77 50 6
0 60 -25 120 -56z"/>
<path d="M997 1919 l-57 -29 2 -463 3 -462 70 0 70 0 3 493 c3 561 12 514 -91
461z"/>
<path d="M160 430 l0 -190 205 0 205 0 0 110 0 111 -107 -3 c-108 -3 -108 -3
-108 -28 0 -22 5 -25 43 -28 l42 -3 0 -55 0 -55 -72 3 -73 3 0 135 0 135 72 3
72 3 3 -28 c3 -27 5 -28 66 -31 l62 -3 0 56 0 55 -205 0 -205 0 0 -190z"/>
<path d="M620 430 l0 -190 65 0 65 0 0 55 0 56 73 -3 72 -3 3 -52 3 -53 65 0
64 0 0 190 0 190 -205 0 -205 0 0 -190z m278 53 l3 -83 -76 0 -75 0 0 85 0 86
73 -3 72 -3 3 -82z"/>
<path d="M1070 430 l0 -190 65 0 64 0 3 98 3 97 40 -70 c40 -69 42 -70 85 -73
l45 -3 37 68 38 68 0 -92 0 -93 65 0 65 0 0 190 0 191 -65 -3 -66 -3 -57 -122
c-31 -68 -59 -123 -62 -123 -3 0 -30 55 -60 123 l-55 122 -73 3 -72 3 0 -191z"/>
<path d="M1630 430 l0 -190 180 0 180 0 0 25 0 25 -115 0 -115 0 0 55 0 55 85
0 85 0 0 30 0 30 -86 0 -85 0 3 53 3 52 113 3 c112 3 112 3 112 27 l0 25 -180
0 -180 0 0 -190z"/>
<path d="M2022 538 l3 -82 138 -45 137 -45 0 -38 0 -38 -75 0 -75 0 0 30 0 31
-62 -3 -63 -3 -3 -52 -3 -53 206 0 206 0 -3 83 -3 82 -138 49 -138 49 3 31 3
31 70 0 c69 0 70 0 73 -28 3 -28 4 -28 65 -25 l62 3 3 53 3 52 -206 0 -206 0
3 -82z"/>
</g>
</svg>
