<?xml version="1.0" encoding="utf-8"?>
<!-- Generator: Adobe Illustrator 23.1.1, SVG Export Plug-In . SVG Version: 6.00 Build 0)  -->
<svg version="1.1" id="Capa_1" xmlns="http://www.w3.org/2000/svg" xmlns:xlink="http://www.w3.org/1999/xlink" x="0px" y="0px"
	 viewBox="0 0 512 512" style="enable-background:new 0 0 512 512;" xml:space="preserve">
<style type="text/css">
	.st0{fill:#1A1A1C;}
</style>
<g>
	<path class="st0" d="M497,482h-66V335c0-16.5-13.5-30-30-30h-22.3c-5.9-25.6-17.6-47.7-34.3-64.2c-10.5-10.4-22.7-18.4-36.2-23.7
		c29-25,48-68.3,48-107.4c0-35.5-9.9-63.3-29.3-82.8C309.2,9.3,284.7,0,256,0c-28.7,0-53.2,9.3-70.8,26.9
		c-19.5,19.4-29.3,47.3-29.3,82.8c0,39.1,18.9,82.4,48,107.4c-13.5,5.4-25.7,13.3-36.2,23.7c-16.7,16.5-28.4,38.6-34.3,64.2H111
		c-16.5,0-30,13.5-30,30v147H15c-8.3,0-15,6.7-15,15s6.7,15,15,15h482c8.3,0,15-6.7,15-15S505.3,482,497,482z M256,30
		c22,0,56.6,7.3,67.1,50.9c-15.3-1.9-24-6.3-30.9-9.6c-6.7-3.3-14.3-7.1-23.6-4.9c-7.5,1.7-12.9,6-18.1,10.1
		c-9.5,7.5-23.3,18.4-64.2,20.6C191.5,39.1,231.5,30,256,30L256,30z M187.4,126.9c50.9-2.7,70-17.7,81.8-27c1.7-1.3,3.9-3.1,5.3-3.9
		c1.2,0.5,3,1.4,4.5,2.1c8.8,4.4,22.7,11.2,47.2,13.2c-0.4,22.1-8.6,46.6-22.2,65.9c-13.8,19.7-31.3,31-47.9,31s-34.1-11.3-47.9-31
		C197.6,162.4,190.3,144.4,187.4,126.9z M248,239h16c41.6,0,72,24.3,83.8,66H164.2C176,263.3,206.4,239,248,239z M111,482V335h290
		v147H111z"/>
	<circle class="st0" cx="256" cy="400" r="15"/>
</g>
</svg>
