<?xml version="1.0" encoding="utf-8"?>
<!-- Generator: Adobe Illustrator 23.1.1, SVG Export Plug-In . SVG Version: 6.00 Build 0)  -->
<svg version="1.1"
	 id="svg2" xmlns:cc="http://creativecommons.org/ns#" xmlns:dc="http://purl.org/dc/elements/1.1/" xmlns:rdf="http://www.w3.org/1999/02/22-rdf-syntax-ns#" xmlns:svg="http://www.w3.org/2000/svg"
	 xmlns="http://www.w3.org/2000/svg" xmlns:xlink="http://www.w3.org/1999/xlink" x="0px" y="0px" viewBox="0 0 222.3 68.5"
	 style="enable-background:new 0 0 222.3 68.5;" xml:space="preserve">
<style type="text/css">
	.st0{clip-path:url(#SVGID_2_);}
	.st1{fill:#28D223;}
</style>
<g id="g10" transform="matrix(1.3333333,0,0,-1.3333333,0,85.333333)">
	<g id="g12">
		<g>
			<defs>
				<rect id="SVGID_1_" x="-35.2" y="-5.2" width="236.4" height="85.3"/>
			</defs>
			<clipPath id="SVGID_2_">
				<use xlink:href="#SVGID_1_"  style="overflow:visible;"/>
			</clipPath>
			<g id="g14" class="st0">
				<g id="g20" transform="translate(14.6896,31.7321)">
					<path id="path22" class="st1" d="M-5.6,5.4c0-2,0.6-3.7,1.8-5c1.2-1.3,2.7-2,4.5-2c1.8,0,3.3,0.7,4.4,2c1.2,1.3,1.8,3,1.8,5
						s-0.6,3.7-1.8,5c-1.1,1.3-2.6,2-4.4,2c-1.8,0-3.3-0.7-4.5-2C-5,9.2-5.6,7.5-5.6,5.4 M10.9-4.7C8.3-7.3,5.1-8.6,1.4-8.6
						c-2.8,0-5.1,0.8-6.9,2.3v-12.3h-7.8v37.4h7.7c0,0,4.1,0.7,7,0.7c3.8,0,6.9-1.3,9.5-3.9c2.6-2.6,3.9-6,3.9-10.2
						C14.8,1.3,13.5-2.1,10.9-4.7"/>
				</g>
				<g id="g24" transform="translate(70.3605,27.0285)">
					<path id="path26" class="st1" d="M-5.6,5.4c1.3,1.4,1.9,3,1.9,4.9c0,3.7-2.7,6.7-6.8,6.7c-1.9,0-3.5-0.7-4.8-2
						c-1.3-1.3-1.9-2.9-1.9-4.7c0-1.8,0.7-3.4,1.9-4.8s2.8-2.1,4.7-2.1C-8.5,3.4-6.9,4.1-5.6,5.4 M-3.7,23.5h7.8V-3.3h-7.8v2
						C-5.8-3-8.2-3.9-11.1-3.9c-3.9,0-7.2,1.3-10,4c-2.7,2.7-4.1,6-4.1,10c0,4,1.4,7.3,4.1,10c2.7,2.7,6.1,4,10,4
						C-7.9,24.2-3.7,23.5-3.7,23.5"/>
				</g>
				<g id="g28" transform="translate(121.6725,37.9665)">
					<path id="path30" class="st1" d="M-5.6,5.4v-19.6h-7.8v26.8H3V5.4H-5.6z"/>
				</g>
				<g id="g32" transform="translate(31.5309,56.6149)">
					<path id="path34" class="st1" d="M-5.6,5.4v-7.2h7.5v-31.1h7.8V5.4H-5.6z"/>
				</g>
				<g id="g36" transform="translate(138.2775,58.3805)">
					<path id="path38" class="st1" d="M-5.6,5.4c2.9,0,5.1-2.2,5.1-5.1c0-2.8-2.3-5.1-5.1-5.1s-5.1,2.3-5.1,5.1
						C-10.7,3.2-8.4,5.4-5.6,5.4"/>
				</g>
				<path id="path40" class="st1" d="M128.8,50.6h7.8V23.8h-7.8V50.6z"/>
				<g id="g42" transform="translate(154.3459,45.1305)">
					<path id="path44" class="st1" d="M-5.6,5.4l4-6.8l4,6.8h8.8l-8.4-13l9-13.8H3.1l-4.7,7.6l-4.6-7.6H-15l9,13.8l-8.4,13H-5.6z"/>
				</g>
				<g id="g46" transform="translate(96.925,7.7238)">
					<path id="path48" class="st1" d="M-5.6,5.4h-8.2L-9.5,16l-10.4,26.8h8.6l6-16.6L1,42.8h8.3L-5.6,5.4z"/>
				</g>
			</g>
		</g>
	</g>
</g>
</svg>
