<?xml version="1.0" encoding="utf-8"?>
<!-- Generator: Adobe Illustrator 23.1.1, SVG Export Plug-In . SVG Version: 6.00 Build 0)  -->
<svg version="1.1" id="Layer_1" xmlns="http://www.w3.org/2000/svg" xmlns:xlink="http://www.w3.org/1999/xlink" x="0px" y="0px"
	 viewBox="0 0 24 24" style="enable-background:new 0 0 24 24;" xml:space="preserve">
<style type="text/css">
	.st0{fill-rule:evenodd;clip-rule:evenodd;fill:#ffffff;}
</style>
<path class="st0" d="M9.5,0.4c5.9,0,11.1-0.7,13.4,3.1c1,1.7,1,4.6,1,7.3c0,5.7,0.4,10-3.7,11.8c-1.6,0.7-3.9,0.7-6.1,0.7
	c-1.5,0-3,0-4.5,0c-0.5,0-1,0-1.6,0C6.6,23,5.6,23,4.6,22.6c-4.2-1.8-3.7-6.4-3.7-12.2c0-2.3,0-4.7,0.7-6.3C2.4,2.1,4.1,1,6.4,0.5
	c0.7-0.1,1.4-0.1,2.1-0.2C8.9,0.4,9.2,0.4,9.5,0.4z M9,2.4C8.3,2.5,7.7,2.5,7,2.5C5.3,2.8,4.1,3.5,3.5,4.8C2.9,6.2,3,8.2,3,10.2
	c0,4-0.6,8.5,1.8,10.2c1.7,1.2,5.8,0.9,8.7,0.9c2.2,0,4.7,0.2,6.1-0.7c0.7-0.4,1.3-1,1.6-1.7c0.9-2,0.5-6,0.5-8.8c0-2.4,0-4.7-1-6
	c-0.5-0.6-1.2-1.1-2-1.3c-0.9-0.3-1.9-0.1-3.1-0.3C13.5,2.4,11.3,2.4,9,2.4z M18.3,4.3c1.9-0.1,2,2.4,0.4,2.7
	c-1,0.2-1.9-0.8-1.6-1.8C17.4,4.7,17.8,4.6,18.3,4.3z M12.1,5.9c4.2-0.1,7.5,4,5.7,8.2c-0.7,1.7-2.1,2.9-3.9,3.4
	c-0.4,0.1-0.8,0.1-1.2,0.2c-0.9,0.2-1.9-0.2-2.5-0.5c-2.3-0.9-4.6-4-3.3-7.3c0.7-1.8,1.9-3,3.7-3.7c0.4-0.1,0.8-0.2,1.2-0.3
	C11.8,6,12,5.9,12.1,5.9z M12.1,8c-0.4,0.1-0.8,0.1-1.1,0.3c-1,0.4-1.9,1.3-2.2,2.4c-0.8,2.5,1.4,5.4,4,5c1.5-0.2,2.6-1,3.2-2.2
	C17.2,10.5,15,8,12.1,8z"/>
</svg>
