<?xml version="1.0" encoding="utf-8"?>
<!-- Generator: Adobe Illustrator 23.1.1, SVG Export Plug-In . SVG Version: 6.00 Build 0)  -->
<svg version="1.1" id="Layer_1" xmlns="http://www.w3.org/2000/svg" xmlns:xlink="http://www.w3.org/1999/xlink" x="0px" y="0px"
	 viewBox="0 0 23 19" style="enable-background:new 0 0 23 19;" xml:space="preserve">
<style type="text/css">
	.st0{fill-rule:evenodd;clip-rule:evenodd;fill:#ffffff;}
</style>
<path class="st0" d="M7,18.1c8.7,0,13.4-6.9,13.4-12.9c0-0.2,0-0.4,0-0.6c0.9-0.6,1.7-1.4,2.4-2.4C21.9,2.6,21,2.9,20.1,3
	c1-0.6,1.7-1.5,2.1-2.5c-0.9,0.5-1.9,0.9-3,1.1c-0.9-0.9-2.1-1.4-3.4-1.4c-2.6,0-4.7,2-4.7,4.5c0,0.4,0,0.7,0.1,1
	C7.2,5.5,3.7,3.7,1.4,1C1,1.6,0.8,2.4,0.8,3.3c0,1.6,0.8,3,2.1,3.8C2.1,7,1.4,6.8,0.7,6.5c0,0,0,0,0,0.1c0,2.2,1.6,4,3.8,4.5
	c-0.4,0.1-0.8,0.2-1.2,0.2c-0.3,0-0.6,0-0.9-0.1c0.6,1.8,2.3,3.1,4.4,3.2c-1.6,1.2-3.6,1.9-5.9,1.9c-0.4,0-0.8,0-1.1-0.1
	C1.9,17.4,4.4,18.1,7,18.1"/>
</svg>
