<?xml version="1.0" encoding="utf-8"?>
<!-- Generator: Adobe Illustrator 23.1.1, SVG Export Plug-In . SVG Version: 6.00 Build 0)  -->
<svg version="1.1" id="Layer_1" xmlns="http://www.w3.org/2000/svg" xmlns:xlink="http://www.w3.org/1999/xlink" x="0px" y="0px"
	 viewBox="0 0 10 20" style="enable-background:new 0 0 10 20;" xml:space="preserve">
<style type="text/css">
	.st0{fill-rule:evenodd;clip-rule:evenodd;fill:#ffffff;}
</style>
<path class="st0" d="M9.9,0.8c0,1.1,0,2.1,0,3.2C9.1,4,7.7,3.9,7.2,4.2C6.7,4.5,6.9,6.1,6.9,6.9c1,0,2,0,3,0C9.8,7.9,9.7,9,9.6,10.1
	c-0.9,0-1.8,0-2.7,0c0,3.1,0,6.2,0,9.2c-1.3,0-2.7,0-4,0c0-3.1,0-6.2,0-9.2c-0.7,0-1.3,0-2,0c0-1.1,0-2.1,0-3.2c0.7,0,1.3,0,2,0
	c0-0.5,0-1.1,0-1.6c0-2.6,0.8-3.9,3.1-4.4c0.5-0.1,1.2-0.1,1.8-0.1C8.5,0.8,9.2,0.8,9.9,0.8z"/>
</svg>
