<?xml version="1.0" encoding="utf-8"?>
<!-- Generator: Adobe Illustrator 23.1.1, SVG Export Plug-In . SVG Version: 6.00 Build 0)  -->
<svg version="1.1" id="Layer_1" xmlns="http://www.w3.org/2000/svg" xmlns:xlink="http://www.w3.org/1999/xlink" x="0px" y="0px"
	 viewBox="0 0 20 20" style="enable-background:new 0 0 20 20;" xml:space="preserve">
<style type="text/css">
	.st0{fill-rule:evenodd;clip-rule:evenodd;fill:#1a1a1c;}
</style>
<path class="st0" d="M2.8,0.7C1.9,1.1,1.2,1.4,0.9,2.3c-0.6,1.7,1,3.4,2.7,3C6.1,4.6,5.8,0.6,2.8,0.7z M11.2,7C10,7,8.7,7,7.5,7
	c0,4.2,0,8.5,0,12.7c1.3,0,2.6,0,3.9,0c0-3.2-1-10.3,2.7-9.5c2.5,0.5,1.7,6.5,1.7,9.5c1.3,0,2.6,0,3.9,0c0-3.9,0.6-9.4-1.1-11.7
	c-1.7-2.3-6.1-1.4-7.3,0.7c0,0-0.1,0-0.1,0C11.2,8.2,11.2,7.6,11.2,7z M1.1,7c0,4.2,0,8.5,0,12.7c1.3,0,2.6,0,3.8,0
	C5,15.5,5,11.3,5,7C3.7,7,2.4,7,1.1,7z"/>
</svg>
